Jump_normalized_Precision Landing13_filtered_grf
version=1
nRows=12
nColumns=37
inDegrees=yes
endheader
time		1_ground_force_vx		1_ground_force_vy		1_ground_force_vz		1_ground_force_px		1_ground_force_py		1_ground_force_pz		1_ground_torque_x		1_ground_torque_y		1_ground_torque_z		2_ground_force_vx		2_ground_force_vy		2_ground_force_vz		2_ground_force_px		2_ground_force_py		2_ground_force_pz		2_ground_torque_x		2_ground_torque_y		2_ground_torque_z		3_ground_force_vx		3_ground_force_vy		3_ground_force_vz		3_ground_force_px		3_ground_force_py		3_ground_force_pz		3_ground_torque_x		3_ground_torque_y		3_ground_torque_z		4_ground_force_vx		4_ground_force_vy		4_ground_force_vz		4_ground_force_px		4_ground_force_py		4_ground_force_pz		4_ground_torque_x		4_ground_torque_y		4_ground_torque_z		
0.298667		-0.000000		0.000000		0.000000		0.123594		0.000000		0.385075		0.000000		0.000000		-0.000000		0.000000		0.000000		0.000000		-0.155640		0.000000		0.290391		0.000000		-0.000000		0.000000		-18.326499		578.517190		48.400127		0.352966		1.253657		1.892415		0.992680		-31.336152		-2.621656		0.645116		510.981977		-8.503705		-0.289793		1.264197		1.904178		4.715990		32.205530		68.412512		
0.302051		-0.000000		0.000000		0.000000		0.123594		0.000000		0.385075		0.000000		0.000000		-0.000000		0.000000		0.000000		0.000000		-0.155640		0.000000		0.290391		0.000000		-0.000000		0.000000		-18.573638		575.668575		45.392786		0.352987		1.253678		1.892440		1.007365		-31.222133		-2.461936		0.180219		506.474485		-12.740002		-0.289742		1.264184		1.904230		4.588771		32.652336		67.708218		
0.305434		-0.000000		0.000000		0.000000		0.123594		0.000000		0.385075		0.000000		0.000000		-0.000000		0.000000		0.000000		0.000000		-0.155640		0.000000		0.290391		0.000000		-0.000000		0.000000		-18.782013		572.449826		42.523300		0.353007		1.253707		1.892476		1.019569		-31.075040		-2.308347		-0.570172		501.994237		-16.836403		-0.289695		1.264170		1.904285		4.470909		33.115047		67.014596		
0.308818		-0.000000		-0.000000		0.000000		0.123594		0.000000		0.385075		0.000000		0.000000		0.000000		0.000000		-0.000000		0.000000		-0.155640		0.000000		0.290391		0.000000		-0.000000		-0.000000		-18.931932		568.838290		39.663208		0.353029		1.253743		1.892519		1.028269		-30.895884		-2.154267		-1.553157		497.541672		-20.722923		-0.289655		1.264153		1.904338		4.360801		33.582707		66.333688		
0.312202		-0.000000		-0.000000		-0.000000		0.123594		0.000000		0.385075		-0.000000		-0.000000		0.000000		-0.000000		-0.000000		-0.000000		-0.155640		0.000000		0.290391		-0.000000		-0.000000		-0.000000		-19.038488		564.842956		36.714454		0.353052		1.253782		1.892563		1.034442		-30.690327		-1.994853		-2.654496		493.050274		-24.361735		-0.289620		1.264133		1.904388		4.256641		34.031782		65.659056		
0.315586		0.000000		-0.000000		-0.000000		0.123594		0.000000		0.385075		-0.000000		-0.000000		0.000000		-0.000000		-0.000000		-0.000000		-0.155640		0.000000		0.290391		-0.000000		0.000000		-0.000000		-19.161128		560.516923		33.640699		0.353080		1.253817		1.892604		1.041554		-30.468392		-1.828630		-3.738987		488.433436		-27.745979		-0.289591		1.264109		1.904430		4.157536		34.435366		64.980597		
0.318970		0.000000		-0.000000		-0.000000		0.123594		0.000000		0.385075		-0.000000		-0.000000		0.000000		-0.000000		-0.000000		-0.000000		-0.155640		0.000000		0.290391		-0.000000		0.000000		-0.000000		-19.395355		555.958352		30.481947		0.353109		1.253843		1.892639		1.055034		-30.242022		-1.658102		-4.708643		483.629436		-30.905106		-0.289562		1.264086		1.904466		4.066646		34.775390		64.287774		
0.322354		0.000000		-0.000000		-0.000000		0.123594		0.000000		0.385075		-0.000000		-0.000000		0.000000		-0.000000		-0.000000		-0.000000		-0.155640		0.000000		0.290391		-0.000000		0.000000		0.000000		-19.845006		551.299154		27.287038		0.353139		1.253859		1.892671		1.080681		-30.021569		-1.485943		-5.543242		478.621054		-33.868452		-0.289530		1.264063		1.904496		-0.351449		30.345172		-2.147306		
0.325737		0.000000		0.000000		-0.000000		0.123594		0.000000		0.385075		0.000000		-0.000000		-0.000000		-0.000000		0.000000		-0.000000		-0.155640		0.000000		0.290391		0.000000		0.000000		0.000000		-20.595334		546.678746		24.038684		0.353167		1.253869		1.892698		1.123156		-29.812830		-1.310936		-6.295985		473.423096		-36.669513		-0.289490		1.264045		1.904520		-0.400974		30.150912		-2.335377		
0.329121		0.000000		0.000000		0.000000		0.123594		0.000000		0.385075		0.000000		0.000000		-0.000000		0.000000		0.000000		0.000000		-0.155640		0.000000		0.290391		0.000000		-0.000000		0.000000		-21.698521		542.210014		20.632672		0.353192		1.253881		1.892727		1.185211		-29.616453		-1.126991		-7.039751		468.055218		-39.283739		-0.289440		1.264033		1.904542		-0.450176		29.931008		-2.512104		
0.332505		-0.000000		0.000000		0.000000		0.123594		0.000000		0.385075		0.000000		0.000000		-0.000000		0.000000		0.000000		0.000000		-0.155640		0.000000		0.290391		0.000000		-0.000000		0.000000		-23.168539		537.957855		16.904453		0.353214		1.253902		1.892758		1.267469		-29.429778		-0.924783		-7.815118		462.517169		-41.666139		-0.289385		1.264024		1.904561		-0.501851		29.700737		-2.675609		
0.335889		-0.000000		0.000000		0.000000		0.123594		0.000000		0.385075		0.000000		0.000000		-0.000000		0.000000		0.000000		0.000000		-0.155640		0.000000		0.290391		0.000000		-0.000000		0.000000		-24.978247		533.947821		12.711209		0.353232		1.253938		1.892797		1.368339		-29.250297		-0.696334		-8.608231		456.773303		-43.780065		-0.289326		1.264018		1.904577		-0.555359		29.468620		-2.824464		
